<mxfile type="device" compressed="false">
    <diagram id="Topology" name="Topology">
      <mxGraphModel dx="1000" dy="1000" grid="1" gridSize="10" guides="1" tooltips="1" connect="1" arrows="1" fold="1" page="1" pageScale="1" pageWidth="827" pageHeight="1169" math="0" shadow="1">
        <root>
          <mxCell id="0" />   
          <mxCell id="1" parent="0" />
        <object id="p1" label="p1 1.255.0.2/32">
      <mxCell style="rounded=1;whiteSpace=wrap;html=1;" vertex="1" parent="1">
          <mxGeometry x="520" y="140" width="80" height="60" as="geometry" />
      </mxCell>
    </object><object id="p2" label="p2 1.255.0.3/32">
      <mxCell style="rounded=1;whiteSpace=wrap;html=1;" vertex="1" parent="1">
          <mxGeometry x="520" y="320" width="80" height="60" as="geometry" />
      </mxCell>
    </object><mxCell id="8fa89d39353f2542435ba347db180703-src" value="Gi0-0-0-0" style="labelBackgroundColor=#ffffff;;" vertex="1" connectable="0" parent="8fa89d39353f2542435ba347db180703">
      <mxGeometry x="-0.5" relative="1" as="geometry">
        <mxPoint as="offset" />
      </mxGeometry>
    </mxCell><mxCell id="8fa89d39353f2542435ba347db180703-trgt" value="Gi0-0-0-0" style="labelBackgroundColor=#ffffff;;" vertex="1" connectable="0" parent="8fa89d39353f2542435ba347db180703">
      <mxGeometry x="0.5" relative="-1" as="geometry">
        <mxPoint as="offset" />
      </mxGeometry>
    </mxCell><object id="8fa89d39353f2542435ba347db180703" label="" src_label="Gi0-0-0-0" trgt_label="Gi0-0-0-0" source="p1" target="p2">
      <mxCell style="endArrow=none;" edge="1" parent="1" source="p1" target="p2">
          <mxGeometry relative="1" as="geometry" />
      </mxCell>
    </object><mxCell id="6688f74b82c7710d0c1cc6782b796964-src" value="Gi0-0-0-1" style="labelBackgroundColor=#ffffff;;" vertex="1" connectable="0" parent="6688f74b82c7710d0c1cc6782b796964">
      <mxGeometry x="-0.5" relative="1" as="geometry">
        <mxPoint as="offset" />
      </mxGeometry>
    </mxCell><mxCell id="6688f74b82c7710d0c1cc6782b796964-trgt" value="Gi0-0-0-1" style="labelBackgroundColor=#ffffff;;" vertex="1" connectable="0" parent="6688f74b82c7710d0c1cc6782b796964">
      <mxGeometry x="0.5" relative="-1" as="geometry">
        <mxPoint as="offset" />
      </mxGeometry>
    </mxCell><object id="6688f74b82c7710d0c1cc6782b796964" label="" src_label="Gi0-0-0-1" trgt_label="Gi0-0-0-1" source="p1" target="p2">
      <mxCell style="endArrow=none;" edge="1" parent="1" source="p1" target="p2">
          <mxGeometry relative="1" as="geometry" />
      </mxCell>
    </object><object id="pe1" label="pe1 1.255.0.4/32">
      <mxCell style="rounded=1;whiteSpace=wrap;html=1;" vertex="1" parent="1">
          <mxGeometry x="243" y="140" width="80" height="60" as="geometry" />
      </mxCell>
    </object><mxCell id="c6249914d28e95836c88b8af581abf43-src" value="Gi0-0-0-0" style="labelBackgroundColor=#ffffff;;" vertex="1" connectable="0" parent="c6249914d28e95836c88b8af581abf43">
      <mxGeometry x="-0.5" relative="1" as="geometry">
        <mxPoint as="offset" />
      </mxGeometry>
    </mxCell><mxCell id="c6249914d28e95836c88b8af581abf43-trgt" value="Gi0-0-0-2" style="labelBackgroundColor=#ffffff;;" vertex="1" connectable="0" parent="c6249914d28e95836c88b8af581abf43">
      <mxGeometry x="0.5" relative="-1" as="geometry">
        <mxPoint as="offset" />
      </mxGeometry>
    </mxCell><object id="c6249914d28e95836c88b8af581abf43" label="" src_label="Gi0-0-0-0" trgt_label="Gi0-0-0-2" source="pe1" target="p1">
      <mxCell style="endArrow=none;" edge="1" parent="1" source="pe1" target="p1">
          <mxGeometry relative="1" as="geometry" />
      </mxCell>
    </object><object id="pe2" label="pe2 1.255.0.5/32">
      <mxCell style="rounded=1;whiteSpace=wrap;html=1;" vertex="1" parent="1">
          <mxGeometry x="243" y="320" width="80" height="60" as="geometry" />
      </mxCell>
    </object><mxCell id="99858499e0d1b749746e50b7ca651322-src" value="Gi0-0-0-0" style="labelBackgroundColor=#ffffff;;" vertex="1" connectable="0" parent="99858499e0d1b749746e50b7ca651322">
      <mxGeometry x="-0.5" relative="1" as="geometry">
        <mxPoint as="offset" />
      </mxGeometry>
    </mxCell><mxCell id="99858499e0d1b749746e50b7ca651322-trgt" value="Gi0-0-0-2" style="labelBackgroundColor=#ffffff;;" vertex="1" connectable="0" parent="99858499e0d1b749746e50b7ca651322">
      <mxGeometry x="0.5" relative="-1" as="geometry">
        <mxPoint as="offset" />
      </mxGeometry>
    </mxCell><object id="99858499e0d1b749746e50b7ca651322" label="" src_label="Gi0-0-0-0" trgt_label="Gi0-0-0-2" source="pe2" target="p2">
      <mxCell style="endArrow=none;" edge="1" parent="1" source="pe2" target="p2">
          <mxGeometry relative="1" as="geometry" />
      </mxCell>
    </object><object id="pe3" label="pe3 1.255.0.6/32">
      <mxCell style="rounded=1;whiteSpace=wrap;html=1;" vertex="1" parent="1">
          <mxGeometry x="820" y="140" width="80" height="60" as="geometry" />
      </mxCell>
    </object><mxCell id="bf78780d3459ebbd9aa93d04f7994de5-src" value="Gi0-0-0-0" style="labelBackgroundColor=#ffffff;;" vertex="1" connectable="0" parent="bf78780d3459ebbd9aa93d04f7994de5">
      <mxGeometry x="-0.5" relative="1" as="geometry">
        <mxPoint as="offset" />
      </mxGeometry>
    </mxCell><mxCell id="bf78780d3459ebbd9aa93d04f7994de5-trgt" value="Gi0-0-0-3" style="labelBackgroundColor=#ffffff;;" vertex="1" connectable="0" parent="bf78780d3459ebbd9aa93d04f7994de5">
      <mxGeometry x="0.5" relative="-1" as="geometry">
        <mxPoint as="offset" />
      </mxGeometry>
    </mxCell><object id="bf78780d3459ebbd9aa93d04f7994de5" label="" src_label="Gi0-0-0-0" trgt_label="Gi0-0-0-3" source="pe3" target="p1">
      <mxCell style="endArrow=none;" edge="1" parent="1" source="pe3" target="p1">
          <mxGeometry relative="1" as="geometry" />
      </mxCell>
    </object><object id="pe4" label="pe4 1.255.0.7/32">
      <mxCell style="rounded=1;whiteSpace=wrap;html=1;" vertex="1" parent="1">
          <mxGeometry x="820" y="320" width="80" height="60" as="geometry" />
      </mxCell>
    </object><mxCell id="4e2bfeb177d4b265cfba9245193b5993-src" value="Gi0-0-0-0" style="labelBackgroundColor=#ffffff;;" vertex="1" connectable="0" parent="4e2bfeb177d4b265cfba9245193b5993">
      <mxGeometry x="-0.5" relative="1" as="geometry">
        <mxPoint as="offset" />
      </mxGeometry>
    </mxCell><mxCell id="4e2bfeb177d4b265cfba9245193b5993-trgt" value="Gi0-0-0-3" style="labelBackgroundColor=#ffffff;;" vertex="1" connectable="0" parent="4e2bfeb177d4b265cfba9245193b5993">
      <mxGeometry x="0.5" relative="-1" as="geometry">
        <mxPoint as="offset" />
      </mxGeometry>
    </mxCell><object id="4e2bfeb177d4b265cfba9245193b5993" label="" src_label="Gi0-0-0-0" trgt_label="Gi0-0-0-3" source="pe4" target="p2">
      <mxCell style="endArrow=none;" edge="1" parent="1" source="pe4" target="p2">
          <mxGeometry relative="1" as="geometry" />
      </mxCell>
    </object><mxCell id="41092eb3611f02402111e08b217c575b-src" value="Gi0-0-0-1" style="labelBackgroundColor=#ffffff;;" vertex="1" connectable="0" parent="41092eb3611f02402111e08b217c575b">
      <mxGeometry x="-0.5" relative="1" as="geometry">
        <mxPoint as="offset" />
      </mxGeometry>
    </mxCell><mxCell id="41092eb3611f02402111e08b217c575b-trgt" value="Gi0-0-0-4" style="labelBackgroundColor=#ffffff;;" vertex="1" connectable="0" parent="41092eb3611f02402111e08b217c575b">
      <mxGeometry x="0.5" relative="-1" as="geometry">
        <mxPoint as="offset" />
      </mxGeometry>
    </mxCell><object id="41092eb3611f02402111e08b217c575b" label="" src_label="Gi0-0-0-1" trgt_label="Gi0-0-0-4" source="pe1" target="p1">
      <mxCell style="endArrow=none;" edge="1" parent="1" source="pe1" target="p1">
          <mxGeometry relative="1" as="geometry" />
      </mxCell>
    </object><mxCell id="716e9706a4fb25bddbfcd0e7cf6be22c-src" value="Gi0-0-0-1" style="labelBackgroundColor=#ffffff;;" vertex="1" connectable="0" parent="716e9706a4fb25bddbfcd0e7cf6be22c">
      <mxGeometry x="-0.5" relative="1" as="geometry">
        <mxPoint as="offset" />
      </mxGeometry>
    </mxCell><mxCell id="716e9706a4fb25bddbfcd0e7cf6be22c-trgt" value="Gi0-0-0-4" style="labelBackgroundColor=#ffffff;;" vertex="1" connectable="0" parent="716e9706a4fb25bddbfcd0e7cf6be22c">
      <mxGeometry x="0.5" relative="-1" as="geometry">
        <mxPoint as="offset" />
      </mxGeometry>
    </mxCell><object id="716e9706a4fb25bddbfcd0e7cf6be22c" label="" src_label="Gi0-0-0-1" trgt_label="Gi0-0-0-4" source="pe2" target="p2">
      <mxCell style="endArrow=none;" edge="1" parent="1" source="pe2" target="p2">
          <mxGeometry relative="1" as="geometry" />
      </mxCell>
    </object><mxCell id="863b4fb8dacf6aad7c20781ad60750e4-src" value="Gi0-0-0-1" style="labelBackgroundColor=#ffffff;;" vertex="1" connectable="0" parent="863b4fb8dacf6aad7c20781ad60750e4">
      <mxGeometry x="-0.5" relative="1" as="geometry">
        <mxPoint as="offset" />
      </mxGeometry>
    </mxCell><mxCell id="863b4fb8dacf6aad7c20781ad60750e4-trgt" value="Gi0-0-0-5" style="labelBackgroundColor=#ffffff;;" vertex="1" connectable="0" parent="863b4fb8dacf6aad7c20781ad60750e4">
      <mxGeometry x="0.5" relative="-1" as="geometry">
        <mxPoint as="offset" />
      </mxGeometry>
    </mxCell><object id="863b4fb8dacf6aad7c20781ad60750e4" label="" src_label="Gi0-0-0-1" trgt_label="Gi0-0-0-5" source="pe3" target="p1">
      <mxCell style="endArrow=none;" edge="1" parent="1" source="pe3" target="p1">
          <mxGeometry relative="1" as="geometry" />
      </mxCell>
    </object><mxCell id="2983382a7654e802bf399ba8646bc846-src" value="Gi0-0-0-1" style="labelBackgroundColor=#ffffff;;" vertex="1" connectable="0" parent="2983382a7654e802bf399ba8646bc846">
      <mxGeometry x="-0.5" relative="1" as="geometry">
        <mxPoint as="offset" />
      </mxGeometry>
    </mxCell><mxCell id="2983382a7654e802bf399ba8646bc846-trgt" value="Gi0-0-0-5" style="labelBackgroundColor=#ffffff;;" vertex="1" connectable="0" parent="2983382a7654e802bf399ba8646bc846">
      <mxGeometry x="0.5" relative="-1" as="geometry">
        <mxPoint as="offset" />
      </mxGeometry>
    </mxCell><object id="2983382a7654e802bf399ba8646bc846" label="" src_label="Gi0-0-0-1" trgt_label="Gi0-0-0-5" source="pe4" target="p2">
      <mxCell style="endArrow=none;" edge="1" parent="1" source="pe4" target="p2">
          <mxGeometry relative="1" as="geometry" />
      </mxCell>
    </object><mxCell id="b5689cb95f0bf168f48d91aa1a55dd2d-src" value="Gi0-0-0-2" style="labelBackgroundColor=#ffffff;;" vertex="1" connectable="0" parent="b5689cb95f0bf168f48d91aa1a55dd2d">
      <mxGeometry x="-0.5" relative="1" as="geometry">
        <mxPoint as="offset" />
      </mxGeometry>
    </mxCell><mxCell id="b5689cb95f0bf168f48d91aa1a55dd2d-trgt" value="Gi0-0-0-2" style="labelBackgroundColor=#ffffff;;" vertex="1" connectable="0" parent="b5689cb95f0bf168f48d91aa1a55dd2d">
      <mxGeometry x="0.5" relative="-1" as="geometry">
        <mxPoint as="offset" />
      </mxGeometry>
    </mxCell><object id="b5689cb95f0bf168f48d91aa1a55dd2d" label="" src_label="Gi0-0-0-2" trgt_label="Gi0-0-0-2" source="pe1" target="pe2">
      <mxCell style="endArrow=none;" edge="1" parent="1" source="pe1" target="pe2">
          <mxGeometry relative="1" as="geometry" />
      </mxCell>
    </object><mxCell id="1250461a1f55a0579e48cd65f45bf097-src" value="Gi0-0-0-2" style="labelBackgroundColor=#ffffff;;" vertex="1" connectable="0" parent="1250461a1f55a0579e48cd65f45bf097">
      <mxGeometry x="-0.5" relative="1" as="geometry">
        <mxPoint as="offset" />
      </mxGeometry>
    </mxCell><mxCell id="1250461a1f55a0579e48cd65f45bf097-trgt" value="Gi0-0-0-2" style="labelBackgroundColor=#ffffff;;" vertex="1" connectable="0" parent="1250461a1f55a0579e48cd65f45bf097">
      <mxGeometry x="0.5" relative="-1" as="geometry">
        <mxPoint as="offset" />
      </mxGeometry>
    </mxCell><object id="1250461a1f55a0579e48cd65f45bf097" label="" src_label="Gi0-0-0-2" trgt_label="Gi0-0-0-2" source="pe3" target="pe4">
      <mxCell style="endArrow=none;" edge="1" parent="1" source="pe3" target="pe4">
          <mxGeometry relative="1" as="geometry" />
      </mxCell>
    </object><object id="rr1" label="rr1 1.255.0.8/32">
      <mxCell style="rounded=1;whiteSpace=wrap;html=1;" vertex="1" parent="1">
          <mxGeometry x="520" y="-10" width="80" height="60" as="geometry" />
      </mxCell>
    </object><mxCell id="615e0d55c6f8a2d23b546b7d1202eedd-src" value="Gi0-0-0-0" style="labelBackgroundColor=#ffffff;;" vertex="1" connectable="0" parent="615e0d55c6f8a2d23b546b7d1202eedd">
      <mxGeometry x="-0.5" relative="1" as="geometry">
        <mxPoint as="offset" />
      </mxGeometry>
    </mxCell><mxCell id="615e0d55c6f8a2d23b546b7d1202eedd-trgt" value="Gi0-0-0-6" style="labelBackgroundColor=#ffffff;;" vertex="1" connectable="0" parent="615e0d55c6f8a2d23b546b7d1202eedd">
      <mxGeometry x="0.5" relative="-1" as="geometry">
        <mxPoint as="offset" />
      </mxGeometry>
    </mxCell><object id="615e0d55c6f8a2d23b546b7d1202eedd" label="" src_label="Gi0-0-0-0" trgt_label="Gi0-0-0-6" source="rr1" target="p1">
      <mxCell style="endArrow=none;" edge="1" parent="1" source="rr1" target="p1">
          <mxGeometry relative="1" as="geometry" />
      </mxCell>
    </object><object id="rr2" label="rr2 1.255.0.9/32">
      <mxCell style="rounded=1;whiteSpace=wrap;html=1;" vertex="1" parent="1">
          <mxGeometry x="520" y="500" width="80" height="60" as="geometry" />
      </mxCell>
    </object><mxCell id="1bd27db1ddbb03c8a27de5d15a15abd2-src" value="Gi0-0-0-0" style="labelBackgroundColor=#ffffff;;" vertex="1" connectable="0" parent="1bd27db1ddbb03c8a27de5d15a15abd2">
      <mxGeometry x="-0.5" relative="1" as="geometry">
        <mxPoint as="offset" />
      </mxGeometry>
    </mxCell><mxCell id="1bd27db1ddbb03c8a27de5d15a15abd2-trgt" value="Gi0-0-0-6" style="labelBackgroundColor=#ffffff;;" vertex="1" connectable="0" parent="1bd27db1ddbb03c8a27de5d15a15abd2">
      <mxGeometry x="0.5" relative="-1" as="geometry">
        <mxPoint as="offset" />
      </mxGeometry>
    </mxCell><object id="1bd27db1ddbb03c8a27de5d15a15abd2" label="" src_label="Gi0-0-0-0" trgt_label="Gi0-0-0-6" source="rr2" target="p2">
      <mxCell style="endArrow=none;" edge="1" parent="1" source="rr2" target="p2">
          <mxGeometry relative="1" as="geometry" />
      </mxCell>
    </object><object id="cpe1" label="cpe1 1.255.0.10/32">
      <mxCell style="rounded=1;whiteSpace=wrap;html=1;" vertex="1" parent="1">
          <mxGeometry x="50" y="230" width="80" height="60" as="geometry" />
      </mxCell>
    </object><mxCell id="352e5e808559726abf0b6c001b1c2bd7-src" value="Gi2" style="labelBackgroundColor=#ffffff;;" vertex="1" connectable="0" parent="352e5e808559726abf0b6c001b1c2bd7">
      <mxGeometry x="-0.5" relative="1" as="geometry">
        <mxPoint as="offset" />
      </mxGeometry>
    </mxCell><mxCell id="352e5e808559726abf0b6c001b1c2bd7-trgt" value="Gi0-0-0-3" style="labelBackgroundColor=#ffffff;;" vertex="1" connectable="0" parent="352e5e808559726abf0b6c001b1c2bd7">
      <mxGeometry x="0.5" relative="-1" as="geometry">
        <mxPoint as="offset" />
      </mxGeometry>
    </mxCell><object id="352e5e808559726abf0b6c001b1c2bd7" label="" src_label="Gi2" trgt_label="Gi0-0-0-3" source="cpe1" target="pe1">
      <mxCell style="endArrow=none;" edge="1" parent="1" source="cpe1" target="pe1">
          <mxGeometry relative="1" as="geometry" />
      </mxCell>
    </object><mxCell id="3f021851c0ed58fee3d17e3fc3ac39e5-src" value="Gi3" style="labelBackgroundColor=#ffffff;;" vertex="1" connectable="0" parent="3f021851c0ed58fee3d17e3fc3ac39e5">
      <mxGeometry x="-0.5" relative="1" as="geometry">
        <mxPoint as="offset" />
      </mxGeometry>
    </mxCell><mxCell id="3f021851c0ed58fee3d17e3fc3ac39e5-trgt" value="Gi0-0-0-3" style="labelBackgroundColor=#ffffff;;" vertex="1" connectable="0" parent="3f021851c0ed58fee3d17e3fc3ac39e5">
      <mxGeometry x="0.5" relative="-1" as="geometry">
        <mxPoint as="offset" />
      </mxGeometry>
    </mxCell><object id="3f021851c0ed58fee3d17e3fc3ac39e5" label="" src_label="Gi3" trgt_label="Gi0-0-0-3" source="cpe1" target="pe2">
      <mxCell style="endArrow=none;" edge="1" parent="1" source="cpe1" target="pe2">
          <mxGeometry relative="1" as="geometry" />
      </mxCell>
    </object><object id="cpe2" label="cpe2 1.255.0.11/32">
      <mxCell style="rounded=1;whiteSpace=wrap;html=1;" vertex="1" parent="1">
          <mxGeometry x="1040" y="230" width="80" height="60" as="geometry" />
      </mxCell>
    </object><mxCell id="12663255d9cd4350a20d4502df963d7e-src" value="Gi2" style="labelBackgroundColor=#ffffff;;" vertex="1" connectable="0" parent="12663255d9cd4350a20d4502df963d7e">
      <mxGeometry x="-0.5" relative="1" as="geometry">
        <mxPoint as="offset" />
      </mxGeometry>
    </mxCell><mxCell id="12663255d9cd4350a20d4502df963d7e-trgt" value="Gi0-0-0-3" style="labelBackgroundColor=#ffffff;;" vertex="1" connectable="0" parent="12663255d9cd4350a20d4502df963d7e">
      <mxGeometry x="0.5" relative="-1" as="geometry">
        <mxPoint as="offset" />
      </mxGeometry>
    </mxCell><object id="12663255d9cd4350a20d4502df963d7e" label="" src_label="Gi2" trgt_label="Gi0-0-0-3" source="cpe2" target="pe3">
      <mxCell style="endArrow=none;" edge="1" parent="1" source="cpe2" target="pe3">
          <mxGeometry relative="1" as="geometry" />
      </mxCell>
    </object><mxCell id="3ab5baddb483ab344ebaa6c7ad2eec82-src" value="Gi3" style="labelBackgroundColor=#ffffff;;" vertex="1" connectable="0" parent="3ab5baddb483ab344ebaa6c7ad2eec82">
      <mxGeometry x="-0.5" relative="1" as="geometry">
        <mxPoint as="offset" />
      </mxGeometry>
    </mxCell><mxCell id="3ab5baddb483ab344ebaa6c7ad2eec82-trgt" value="Gi0-0-0-3" style="labelBackgroundColor=#ffffff;;" vertex="1" connectable="0" parent="3ab5baddb483ab344ebaa6c7ad2eec82">
      <mxGeometry x="0.5" relative="-1" as="geometry">
        <mxPoint as="offset" />
      </mxGeometry>
    </mxCell><object id="3ab5baddb483ab344ebaa6c7ad2eec82" label="" src_label="Gi3" trgt_label="Gi0-0-0-3" source="cpe2" target="pe4">
      <mxCell style="endArrow=none;" edge="1" parent="1" source="cpe2" target="pe4">
          <mxGeometry relative="1" as="geometry" />
      </mxCell>
    </object></root>
      </mxGraphModel>
    </diagram></mxfile>